<?xml version="1.0" encoding="UTF-8" standalone="no"?>
<svg width="858.898px" height="340.157px" viewBox="0 0 858.898 340.157"
 xmlns="http://www.w3.org/2000/svg" xmlns:xlink="http://www.w3.org/1999/xlink" version="1.2" baseProfile="tiny">
<title>piano_cadence_c_melody</title>
<desc>Generated by MuseScore 2.1.0</desc>
<polyline class="StaffLines" fill="none" stroke="#000000" stroke-width="0.94" stroke-linejoin="bevel" points="53.1337,110.971 830.551,110.971"/>
<polyline class="StaffLines" fill="none" stroke="#000000" stroke-width="0.94" stroke-linejoin="bevel" points="53.1337,122.774 830.551,122.774"/>
<polyline class="StaffLines" fill="none" stroke="#000000" stroke-width="0.94" stroke-linejoin="bevel" points="53.1337,134.578 830.551,134.578"/>
<polyline class="StaffLines" fill="none" stroke="#000000" stroke-width="0.94" stroke-linejoin="bevel" points="53.1337,146.381 830.551,146.381"/>
<polyline class="StaffLines" fill="none" stroke="#000000" stroke-width="0.94" stroke-linejoin="bevel" points="53.1337,158.185 830.551,158.185"/>
<polyline class="StaffLines" fill="none" stroke="#000000" stroke-width="0.94" stroke-linejoin="bevel" points="53.1337,234.907 830.551,234.907"/>
<polyline class="StaffLines" fill="none" stroke="#000000" stroke-width="0.94" stroke-linejoin="bevel" points="53.1337,246.711 830.551,246.711"/>
<polyline class="StaffLines" fill="none" stroke="#000000" stroke-width="0.94" stroke-linejoin="bevel" points="53.1337,258.514 830.551,258.514"/>
<polyline class="StaffLines" fill="none" stroke="#000000" stroke-width="0.94" stroke-linejoin="bevel" points="53.1337,270.317 830.551,270.317"/>
<polyline class="StaffLines" fill="none" stroke="#000000" stroke-width="0.94" stroke-linejoin="bevel" points="53.1337,282.121 830.551,282.121"/>
<polyline class="BarLine" fill="none" stroke="#000000" stroke-width="1.89" stroke-linejoin="bevel" points="54.078,110.971 54.078,282.121"/>
<polyline class="BarLine" fill="none" stroke="#000000" stroke-width="1.89" stroke-linejoin="bevel" points="829.607,110.971 829.607,282.121"/>
<polyline class="BarLine" fill="none" stroke="#000000" stroke-width="1.89" stroke-linejoin="bevel" points="709.428,110.971 709.428,282.121"/>
<polyline class="BarLine" fill="none" stroke="#000000" stroke-width="1.89" stroke-linejoin="bevel" points="569.973,110.971 569.973,282.121"/>
<polyline class="BarLine" fill="none" stroke="#000000" stroke-width="1.89" stroke-linejoin="bevel" points="430.519,110.971 430.519,282.121"/>
<polyline class="BarLine" fill="none" stroke="#000000" stroke-width="1.89" stroke-linejoin="bevel" points="325.454,110.971 325.454,282.121"/>
<polyline class="BarLine" fill="none" stroke="#000000" stroke-width="1.89" stroke-linejoin="bevel" points="221.703,110.971 221.703,282.121"/>
<polyline class="LedgerLine" fill="none" stroke="#000000" stroke-width="1.89" stroke-linecap="square" stroke-linejoin="bevel" points="337.021,169.988 360.496,169.988"/>
<polyline class="Stem" fill="none" stroke="#000000" stroke-width="1.53" stroke-linecap="round" stroke-linejoin="bevel" points="739.31,144.164 739.31,106.544"/>
<polyline class="Stem" fill="none" stroke="#000000" stroke-width="1.53" stroke-linecap="round" stroke-linejoin="bevel" points="692.406,138.263 692.406,102.118"/>
<polyline class="Stem" fill="none" stroke="#000000" stroke-width="1.53" stroke-linecap="round" stroke-linejoin="bevel" points="661.556,144.164 661.556,106.544"/>
<polyline class="Stem" fill="none" stroke="#000000" stroke-width="1.53" stroke-linecap="round" stroke-linejoin="bevel" points="630.705,150.066 630.705,110.971"/>
<polyline class="Stem" fill="none" stroke="#000000" stroke-width="1.53" stroke-linecap="round" stroke-linejoin="bevel" points="599.855,144.164 599.855,106.544"/>
<polyline class="Stem" fill="none" stroke="#000000" stroke-width="1.53" stroke-linecap="round" stroke-linejoin="bevel" points="552.951,138.263 552.951,102.118"/>
<polyline class="Stem" fill="none" stroke="#000000" stroke-width="1.53" stroke-linecap="round" stroke-linejoin="bevel" points="522.101,144.164 522.101,106.544"/>
<polyline class="Stem" fill="none" stroke="#000000" stroke-width="1.53" stroke-linecap="round" stroke-linejoin="bevel" points="491.25,138.263 491.25,102.118"/>
<polyline class="Stem" fill="none" stroke="#000000" stroke-width="1.53" stroke-linecap="round" stroke-linejoin="bevel" points="446.394,136.794 446.394,171.463"/>
<polyline class="Stem" fill="none" stroke="#000000" stroke-width="1.53" stroke-linecap="round" stroke-linejoin="bevel" points="356.187,262.603 356.187,226.054"/>
<polyline class="Stem" fill="none" stroke="#000000" stroke-width="1.53" stroke-linecap="round" stroke-linejoin="bevel" points="356.187,168.175 356.187,93.2655"/>
<polyline class="Stem" fill="none" stroke="#000000" stroke-width="1.53" stroke-linecap="round" stroke-linejoin="bevel" points="296.072,280.308 296.072,240.809"/>
<polyline class="Stem" fill="none" stroke="#000000" stroke-width="1.53" stroke-linecap="round" stroke-linejoin="bevel" points="296.072,162.273 296.072,97.6918"/>
<polyline class="Stem" fill="none" stroke="#000000" stroke-width="1.53" stroke-linecap="round" stroke-linejoin="bevel" points="252.436,262.603 252.436,226.054"/>
<polyline class="Stem" fill="none" stroke="#000000" stroke-width="1.53" stroke-linecap="round" stroke-linejoin="bevel" points="252.436,156.372 252.436,93.2655"/>
<polyline class="Stem" fill="none" stroke="#000000" stroke-width="1.53" stroke-linecap="round" stroke-linejoin="bevel" points="183.152,248.561 183.152,286.547"/>
<polyline class="Stem" fill="none" stroke="#000000" stroke-width="1.53" stroke-linecap="round" stroke-linejoin="bevel" points="198.01,150.47 198.01,93.2655"/>
<polyline class="Stem" fill="none" stroke="#000000" stroke-width="1.53" stroke-linecap="round" stroke-linejoin="bevel" points="160.062,262.603 160.062,226.054"/>
<polyline class="Stem" fill="none" stroke="#000000" stroke-width="1.53" stroke-linecap="round" stroke-linejoin="bevel" points="160.062,156.372 160.062,93.2655"/>
<path class="Note" transform="matrix(2.36069,0,0,2.36069,724.537,146.381)" d="M4.39063,-2.75 C5.01563,-2.75 5.54688,-2.58854 5.98438,-2.26563 C6.38021,-1.91146 6.57813,-1.46875 6.57813,-0.9375 C6.57813,-0.0416667 6.11979,0.796875 5.20313,1.57813 C4.26563,2.35938 3.26042,2.75 2.1875,2.75 C1.5625,2.75 1.03646,2.58854 0.609375,2.26563 C0.203125,1.91146 0,1.46875 0,0.9375 C0,0.0416667 0.46875,-0.796875 1.40625,-1.57813 C2.32292,-2.35938 3.31771,-2.75 4.39063,-2.75"/>
<path class="Note" transform="matrix(2.36069,0,0,2.36069,677.634,140.479)" d="M4.39063,-2.75 C5.01563,-2.75 5.54688,-2.58854 5.98438,-2.26563 C6.38021,-1.91146 6.57813,-1.46875 6.57813,-0.9375 C6.57813,-0.0416667 6.11979,0.796875 5.20313,1.57813 C4.26563,2.35938 3.26042,2.75 2.1875,2.75 C1.5625,2.75 1.03646,2.58854 0.609375,2.26563 C0.203125,1.91146 0,1.46875 0,0.9375 C0,0.0416667 0.46875,-0.796875 1.40625,-1.57813 C2.32292,-2.35938 3.31771,-2.75 4.39063,-2.75"/>
<path class="Note" transform="matrix(2.36069,0,0,2.36069,646.783,146.381)" d="M4.39063,-2.75 C5.01563,-2.75 5.54688,-2.58854 5.98438,-2.26563 C6.38021,-1.91146 6.57813,-1.46875 6.57813,-0.9375 C6.57813,-0.0416667 6.11979,0.796875 5.20313,1.57813 C4.26563,2.35938 3.26042,2.75 2.1875,2.75 C1.5625,2.75 1.03646,2.58854 0.609375,2.26563 C0.203125,1.91146 0,1.46875 0,0.9375 C0,0.0416667 0.46875,-0.796875 1.40625,-1.57813 C2.32292,-2.35938 3.31771,-2.75 4.39063,-2.75"/>
<path class="Note" transform="matrix(2.36069,0,0,2.36069,615.932,152.283)" d="M4.39063,-2.75 C5.01563,-2.75 5.54688,-2.58854 5.98438,-2.26563 C6.38021,-1.91146 6.57813,-1.46875 6.57813,-0.9375 C6.57813,-0.0416667 6.11979,0.796875 5.20313,1.57813 C4.26563,2.35938 3.26042,2.75 2.1875,2.75 C1.5625,2.75 1.03646,2.58854 0.609375,2.26563 C0.203125,1.91146 0,1.46875 0,0.9375 C0,0.0416667 0.46875,-0.796875 1.40625,-1.57813 C2.32292,-2.35938 3.31771,-2.75 4.39063,-2.75"/>
<path class="Note" transform="matrix(2.36069,0,0,2.36069,585.082,146.381)" d="M4.39063,-2.75 C5.01563,-2.75 5.54688,-2.58854 5.98438,-2.26563 C6.38021,-1.91146 6.57813,-1.46875 6.57813,-0.9375 C6.57813,-0.0416667 6.11979,0.796875 5.20313,1.57813 C4.26563,2.35938 3.26042,2.75 2.1875,2.75 C1.5625,2.75 1.03646,2.58854 0.609375,2.26563 C0.203125,1.91146 0,1.46875 0,0.9375 C0,0.0416667 0.46875,-0.796875 1.40625,-1.57813 C2.32292,-2.35938 3.31771,-2.75 4.39063,-2.75"/>
<path class="Note" transform="matrix(2.36069,0,0,2.36069,538.179,140.479)" d="M4.39063,-2.75 C5.01563,-2.75 5.54688,-2.58854 5.98438,-2.26563 C6.38021,-1.91146 6.57813,-1.46875 6.57813,-0.9375 C6.57813,-0.0416667 6.11979,0.796875 5.20313,1.57813 C4.26563,2.35938 3.26042,2.75 2.1875,2.75 C1.5625,2.75 1.03646,2.58854 0.609375,2.26563 C0.203125,1.91146 0,1.46875 0,0.9375 C0,0.0416667 0.46875,-0.796875 1.40625,-1.57813 C2.32292,-2.35938 3.31771,-2.75 4.39063,-2.75"/>
<path class="Note" transform="matrix(2.36069,0,0,2.36069,507.328,146.381)" d="M4.39063,-2.75 C5.01563,-2.75 5.54688,-2.58854 5.98438,-2.26563 C6.38021,-1.91146 6.57813,-1.46875 6.57813,-0.9375 C6.57813,-0.0416667 6.11979,0.796875 5.20313,1.57813 C4.26563,2.35938 3.26042,2.75 2.1875,2.75 C1.5625,2.75 1.03646,2.58854 0.609375,2.26563 C0.203125,1.91146 0,1.46875 0,0.9375 C0,0.0416667 0.46875,-0.796875 1.40625,-1.57813 C2.32292,-2.35938 3.31771,-2.75 4.39063,-2.75"/>
<path class="Note" transform="matrix(2.36069,0,0,2.36069,476.478,140.479)" d="M4.39063,-2.75 C5.01563,-2.75 5.54688,-2.58854 5.98438,-2.26563 C6.38021,-1.91146 6.57813,-1.46875 6.57813,-0.9375 C6.57813,-0.0416667 6.11979,0.796875 5.20313,1.57813 C4.26563,2.35938 3.26042,2.75 2.1875,2.75 C1.5625,2.75 1.03646,2.58854 0.609375,2.26563 C0.203125,1.91146 0,1.46875 0,0.9375 C0,0.0416667 0.46875,-0.796875 1.40625,-1.57813 C2.32292,-2.35938 3.31771,-2.75 4.39063,-2.75"/>
<path class="Note" transform="matrix(2.36069,0,0,2.36069,445.627,134.578)" d="M4.39063,-2.75 C5.01563,-2.75 5.54688,-2.58854 5.98438,-2.26563 C6.38021,-1.91146 6.57813,-1.46875 6.57813,-0.9375 C6.57813,-0.0416667 6.11979,0.796875 5.20313,1.57813 C4.26563,2.35938 3.26042,2.75 2.1875,2.75 C1.5625,2.75 1.03646,2.58854 0.609375,2.26563 C0.203125,1.91146 0,1.46875 0,0.9375 C0,0.0416667 0.46875,-0.796875 1.40625,-1.57813 C2.32292,-2.35938 3.31771,-2.75 4.39063,-2.75"/>
<path class="Note" transform="matrix(2.36069,0,0,2.36069,340.562,264.416)" d="M6.3125,-1.3125 C6.3125,-1.53125 6.22917,-1.71875 6.0625,-1.875 C5.88542,-2.04167 5.6875,-2.125 5.46875,-2.125 C5.08333,-2.125 4.29688,-1.73438 3.10938,-0.953125 C1.88021,-0.161458 1.13021,0.40625 0.859375,0.75 C0.713542,0.927083 0.640625,1.11458 0.640625,1.3125 C0.640625,1.53125 0.729167,1.71875 0.90625,1.875 C1.0625,2.04167 1.25521,2.125 1.48438,2.125 C1.85938,2.125 2.65625,1.73438 3.875,0.953125 C5.07292,0.171875 5.8125,-0.395833 6.09375,-0.75 C6.23958,-0.916667 6.3125,-1.10417 6.3125,-1.3125 M5.28125,-2.75 C6.39583,-2.75 6.95313,-2.27083 6.95313,-1.3125 C6.95313,-0.84375 6.81771,-0.296875 6.54688,0.328125 C6.27604,0.942708 5.91146,1.41146 5.45313,1.73438 C4.45313,2.41146 3.19792,2.75 1.6875,2.75 C0.5625,2.75 0,2.27083 0,1.3125 C0,0.885417 0.135417,0.34375 0.40625,-0.3125 C0.666667,-0.9375 1.03125,-1.41146 1.5,-1.73438 C2.51042,-2.41146 3.77083,-2.75 5.28125,-2.75"/>
<path class="Note" transform="matrix(2.36069,0,0,2.36069,340.562,128.676)" d="M6.3125,-1.3125 C6.3125,-1.53125 6.22917,-1.71875 6.0625,-1.875 C5.88542,-2.04167 5.6875,-2.125 5.46875,-2.125 C5.08333,-2.125 4.29688,-1.73438 3.10938,-0.953125 C1.88021,-0.161458 1.13021,0.40625 0.859375,0.75 C0.713542,0.927083 0.640625,1.11458 0.640625,1.3125 C0.640625,1.53125 0.729167,1.71875 0.90625,1.875 C1.0625,2.04167 1.25521,2.125 1.48438,2.125 C1.85938,2.125 2.65625,1.73438 3.875,0.953125 C5.07292,0.171875 5.8125,-0.395833 6.09375,-0.75 C6.23958,-0.916667 6.3125,-1.10417 6.3125,-1.3125 M5.28125,-2.75 C6.39583,-2.75 6.95313,-2.27083 6.95313,-1.3125 C6.95313,-0.84375 6.81771,-0.296875 6.54688,0.328125 C6.27604,0.942708 5.91146,1.41146 5.45313,1.73438 C4.45313,2.41146 3.19792,2.75 1.6875,2.75 C0.5625,2.75 0,2.27083 0,1.3125 C0,0.885417 0.135417,0.34375 0.40625,-0.3125 C0.666667,-0.9375 1.03125,-1.41146 1.5,-1.73438 C2.51042,-2.41146 3.77083,-2.75 5.28125,-2.75"/>
<path class="Note" transform="matrix(2.36069,0,0,2.36069,340.562,146.381)" d="M6.3125,-1.3125 C6.3125,-1.53125 6.22917,-1.71875 6.0625,-1.875 C5.88542,-2.04167 5.6875,-2.125 5.46875,-2.125 C5.08333,-2.125 4.29688,-1.73438 3.10938,-0.953125 C1.88021,-0.161458 1.13021,0.40625 0.859375,0.75 C0.713542,0.927083 0.640625,1.11458 0.640625,1.3125 C0.640625,1.53125 0.729167,1.71875 0.90625,1.875 C1.0625,2.04167 1.25521,2.125 1.48438,2.125 C1.85938,2.125 2.65625,1.73438 3.875,0.953125 C5.07292,0.171875 5.8125,-0.395833 6.09375,-0.75 C6.23958,-0.916667 6.3125,-1.10417 6.3125,-1.3125 M5.28125,-2.75 C6.39583,-2.75 6.95313,-2.27083 6.95313,-1.3125 C6.95313,-0.84375 6.81771,-0.296875 6.54688,0.328125 C6.27604,0.942708 5.91146,1.41146 5.45313,1.73438 C4.45313,2.41146 3.19792,2.75 1.6875,2.75 C0.5625,2.75 0,2.27083 0,1.3125 C0,0.885417 0.135417,0.34375 0.40625,-0.3125 C0.666667,-0.9375 1.03125,-1.41146 1.5,-1.73438 C2.51042,-2.41146 3.77083,-2.75 5.28125,-2.75"/>
<path class="Note" transform="matrix(2.36069,0,0,2.36069,340.562,158.185)" d="M6.3125,-1.3125 C6.3125,-1.53125 6.22917,-1.71875 6.0625,-1.875 C5.88542,-2.04167 5.6875,-2.125 5.46875,-2.125 C5.08333,-2.125 4.29688,-1.73438 3.10938,-0.953125 C1.88021,-0.161458 1.13021,0.40625 0.859375,0.75 C0.713542,0.927083 0.640625,1.11458 0.640625,1.3125 C0.640625,1.53125 0.729167,1.71875 0.90625,1.875 C1.0625,2.04167 1.25521,2.125 1.48438,2.125 C1.85938,2.125 2.65625,1.73438 3.875,0.953125 C5.07292,0.171875 5.8125,-0.395833 6.09375,-0.75 C6.23958,-0.916667 6.3125,-1.10417 6.3125,-1.3125 M5.28125,-2.75 C6.39583,-2.75 6.95313,-2.27083 6.95313,-1.3125 C6.95313,-0.84375 6.81771,-0.296875 6.54688,0.328125 C6.27604,0.942708 5.91146,1.41146 5.45313,1.73438 C4.45313,2.41146 3.19792,2.75 1.6875,2.75 C0.5625,2.75 0,2.27083 0,1.3125 C0,0.885417 0.135417,0.34375 0.40625,-0.3125 C0.666667,-0.9375 1.03125,-1.41146 1.5,-1.73438 C2.51042,-2.41146 3.77083,-2.75 5.28125,-2.75"/>
<path class="Note" transform="matrix(2.36069,0,0,2.36069,340.562,169.988)" d="M6.3125,-1.3125 C6.3125,-1.53125 6.22917,-1.71875 6.0625,-1.875 C5.88542,-2.04167 5.6875,-2.125 5.46875,-2.125 C5.08333,-2.125 4.29688,-1.73438 3.10938,-0.953125 C1.88021,-0.161458 1.13021,0.40625 0.859375,0.75 C0.713542,0.927083 0.640625,1.11458 0.640625,1.3125 C0.640625,1.53125 0.729167,1.71875 0.90625,1.875 C1.0625,2.04167 1.25521,2.125 1.48438,2.125 C1.85938,2.125 2.65625,1.73438 3.875,0.953125 C5.07292,0.171875 5.8125,-0.395833 6.09375,-0.75 C6.23958,-0.916667 6.3125,-1.10417 6.3125,-1.3125 M5.28125,-2.75 C6.39583,-2.75 6.95313,-2.27083 6.95313,-1.3125 C6.95313,-0.84375 6.81771,-0.296875 6.54688,0.328125 C6.27604,0.942708 5.91146,1.41146 5.45313,1.73438 C4.45313,2.41146 3.19792,2.75 1.6875,2.75 C0.5625,2.75 0,2.27083 0,1.3125 C0,0.885417 0.135417,0.34375 0.40625,-0.3125 C0.666667,-0.9375 1.03125,-1.41146 1.5,-1.73438 C2.51042,-2.41146 3.77083,-2.75 5.28125,-2.75"/>
<path class="Note" transform="matrix(2.36069,0,0,2.36069,280.447,282.121)" d="M6.3125,-1.3125 C6.3125,-1.53125 6.22917,-1.71875 6.0625,-1.875 C5.88542,-2.04167 5.6875,-2.125 5.46875,-2.125 C5.08333,-2.125 4.29688,-1.73438 3.10938,-0.953125 C1.88021,-0.161458 1.13021,0.40625 0.859375,0.75 C0.713542,0.927083 0.640625,1.11458 0.640625,1.3125 C0.640625,1.53125 0.729167,1.71875 0.90625,1.875 C1.0625,2.04167 1.25521,2.125 1.48438,2.125 C1.85938,2.125 2.65625,1.73438 3.875,0.953125 C5.07292,0.171875 5.8125,-0.395833 6.09375,-0.75 C6.23958,-0.916667 6.3125,-1.10417 6.3125,-1.3125 M5.28125,-2.75 C6.39583,-2.75 6.95313,-2.27083 6.95313,-1.3125 C6.95313,-0.84375 6.81771,-0.296875 6.54688,0.328125 C6.27604,0.942708 5.91146,1.41146 5.45313,1.73438 C4.45313,2.41146 3.19792,2.75 1.6875,2.75 C0.5625,2.75 0,2.27083 0,1.3125 C0,0.885417 0.135417,0.34375 0.40625,-0.3125 C0.666667,-0.9375 1.03125,-1.41146 1.5,-1.73438 C2.51042,-2.41146 3.77083,-2.75 5.28125,-2.75"/>
<path class="Note" transform="matrix(2.36069,0,0,2.36069,280.447,134.578)" d="M6.3125,-1.3125 C6.3125,-1.53125 6.22917,-1.71875 6.0625,-1.875 C5.88542,-2.04167 5.6875,-2.125 5.46875,-2.125 C5.08333,-2.125 4.29688,-1.73438 3.10938,-0.953125 C1.88021,-0.161458 1.13021,0.40625 0.859375,0.75 C0.713542,0.927083 0.640625,1.11458 0.640625,1.3125 C0.640625,1.53125 0.729167,1.71875 0.90625,1.875 C1.0625,2.04167 1.25521,2.125 1.48438,2.125 C1.85938,2.125 2.65625,1.73438 3.875,0.953125 C5.07292,0.171875 5.8125,-0.395833 6.09375,-0.75 C6.23958,-0.916667 6.3125,-1.10417 6.3125,-1.3125 M5.28125,-2.75 C6.39583,-2.75 6.95313,-2.27083 6.95313,-1.3125 C6.95313,-0.84375 6.81771,-0.296875 6.54688,0.328125 C6.27604,0.942708 5.91146,1.41146 5.45313,1.73438 C4.45313,2.41146 3.19792,2.75 1.6875,2.75 C0.5625,2.75 0,2.27083 0,1.3125 C0,0.885417 0.135417,0.34375 0.40625,-0.3125 C0.666667,-0.9375 1.03125,-1.41146 1.5,-1.73438 C2.51042,-2.41146 3.77083,-2.75 5.28125,-2.75"/>
<path class="Note" transform="matrix(2.36069,0,0,2.36069,280.447,152.283)" d="M6.3125,-1.3125 C6.3125,-1.53125 6.22917,-1.71875 6.0625,-1.875 C5.88542,-2.04167 5.6875,-2.125 5.46875,-2.125 C5.08333,-2.125 4.29688,-1.73438 3.10938,-0.953125 C1.88021,-0.161458 1.13021,0.40625 0.859375,0.75 C0.713542,0.927083 0.640625,1.11458 0.640625,1.3125 C0.640625,1.53125 0.729167,1.71875 0.90625,1.875 C1.0625,2.04167 1.25521,2.125 1.48438,2.125 C1.85938,2.125 2.65625,1.73438 3.875,0.953125 C5.07292,0.171875 5.8125,-0.395833 6.09375,-0.75 C6.23958,-0.916667 6.3125,-1.10417 6.3125,-1.3125 M5.28125,-2.75 C6.39583,-2.75 6.95313,-2.27083 6.95313,-1.3125 C6.95313,-0.84375 6.81771,-0.296875 6.54688,0.328125 C6.27604,0.942708 5.91146,1.41146 5.45313,1.73438 C4.45313,2.41146 3.19792,2.75 1.6875,2.75 C0.5625,2.75 0,2.27083 0,1.3125 C0,0.885417 0.135417,0.34375 0.40625,-0.3125 C0.666667,-0.9375 1.03125,-1.41146 1.5,-1.73438 C2.51042,-2.41146 3.77083,-2.75 5.28125,-2.75"/>
<path class="Note" transform="matrix(2.36069,0,0,2.36069,280.447,164.086)" d="M6.3125,-1.3125 C6.3125,-1.53125 6.22917,-1.71875 6.0625,-1.875 C5.88542,-2.04167 5.6875,-2.125 5.46875,-2.125 C5.08333,-2.125 4.29688,-1.73438 3.10938,-0.953125 C1.88021,-0.161458 1.13021,0.40625 0.859375,0.75 C0.713542,0.927083 0.640625,1.11458 0.640625,1.3125 C0.640625,1.53125 0.729167,1.71875 0.90625,1.875 C1.0625,2.04167 1.25521,2.125 1.48438,2.125 C1.85938,2.125 2.65625,1.73438 3.875,0.953125 C5.07292,0.171875 5.8125,-0.395833 6.09375,-0.75 C6.23958,-0.916667 6.3125,-1.10417 6.3125,-1.3125 M5.28125,-2.75 C6.39583,-2.75 6.95313,-2.27083 6.95313,-1.3125 C6.95313,-0.84375 6.81771,-0.296875 6.54688,0.328125 C6.27604,0.942708 5.91146,1.41146 5.45313,1.73438 C4.45313,2.41146 3.19792,2.75 1.6875,2.75 C0.5625,2.75 0,2.27083 0,1.3125 C0,0.885417 0.135417,0.34375 0.40625,-0.3125 C0.666667,-0.9375 1.03125,-1.41146 1.5,-1.73438 C2.51042,-2.41146 3.77083,-2.75 5.28125,-2.75"/>
<path class="Note" transform="matrix(2.36069,0,0,2.36069,236.811,264.416)" d="M6.3125,-1.3125 C6.3125,-1.53125 6.22917,-1.71875 6.0625,-1.875 C5.88542,-2.04167 5.6875,-2.125 5.46875,-2.125 C5.08333,-2.125 4.29688,-1.73438 3.10938,-0.953125 C1.88021,-0.161458 1.13021,0.40625 0.859375,0.75 C0.713542,0.927083 0.640625,1.11458 0.640625,1.3125 C0.640625,1.53125 0.729167,1.71875 0.90625,1.875 C1.0625,2.04167 1.25521,2.125 1.48438,2.125 C1.85938,2.125 2.65625,1.73438 3.875,0.953125 C5.07292,0.171875 5.8125,-0.395833 6.09375,-0.75 C6.23958,-0.916667 6.3125,-1.10417 6.3125,-1.3125 M5.28125,-2.75 C6.39583,-2.75 6.95313,-2.27083 6.95313,-1.3125 C6.95313,-0.84375 6.81771,-0.296875 6.54688,0.328125 C6.27604,0.942708 5.91146,1.41146 5.45313,1.73438 C4.45313,2.41146 3.19792,2.75 1.6875,2.75 C0.5625,2.75 0,2.27083 0,1.3125 C0,0.885417 0.135417,0.34375 0.40625,-0.3125 C0.666667,-0.9375 1.03125,-1.41146 1.5,-1.73438 C2.51042,-2.41146 3.77083,-2.75 5.28125,-2.75"/>
<path class="Note" transform="matrix(2.36069,0,0,2.36069,236.811,128.676)" d="M6.3125,-1.3125 C6.3125,-1.53125 6.22917,-1.71875 6.0625,-1.875 C5.88542,-2.04167 5.6875,-2.125 5.46875,-2.125 C5.08333,-2.125 4.29688,-1.73438 3.10938,-0.953125 C1.88021,-0.161458 1.13021,0.40625 0.859375,0.75 C0.713542,0.927083 0.640625,1.11458 0.640625,1.3125 C0.640625,1.53125 0.729167,1.71875 0.90625,1.875 C1.0625,2.04167 1.25521,2.125 1.48438,2.125 C1.85938,2.125 2.65625,1.73438 3.875,0.953125 C5.07292,0.171875 5.8125,-0.395833 6.09375,-0.75 C6.23958,-0.916667 6.3125,-1.10417 6.3125,-1.3125 M5.28125,-2.75 C6.39583,-2.75 6.95313,-2.27083 6.95313,-1.3125 C6.95313,-0.84375 6.81771,-0.296875 6.54688,0.328125 C6.27604,0.942708 5.91146,1.41146 5.45313,1.73438 C4.45313,2.41146 3.19792,2.75 1.6875,2.75 C0.5625,2.75 0,2.27083 0,1.3125 C0,0.885417 0.135417,0.34375 0.40625,-0.3125 C0.666667,-0.9375 1.03125,-1.41146 1.5,-1.73438 C2.51042,-2.41146 3.77083,-2.75 5.28125,-2.75"/>
<path class="Note" transform="matrix(2.36069,0,0,2.36069,236.811,146.381)" d="M6.3125,-1.3125 C6.3125,-1.53125 6.22917,-1.71875 6.0625,-1.875 C5.88542,-2.04167 5.6875,-2.125 5.46875,-2.125 C5.08333,-2.125 4.29688,-1.73438 3.10938,-0.953125 C1.88021,-0.161458 1.13021,0.40625 0.859375,0.75 C0.713542,0.927083 0.640625,1.11458 0.640625,1.3125 C0.640625,1.53125 0.729167,1.71875 0.90625,1.875 C1.0625,2.04167 1.25521,2.125 1.48438,2.125 C1.85938,2.125 2.65625,1.73438 3.875,0.953125 C5.07292,0.171875 5.8125,-0.395833 6.09375,-0.75 C6.23958,-0.916667 6.3125,-1.10417 6.3125,-1.3125 M5.28125,-2.75 C6.39583,-2.75 6.95313,-2.27083 6.95313,-1.3125 C6.95313,-0.84375 6.81771,-0.296875 6.54688,0.328125 C6.27604,0.942708 5.91146,1.41146 5.45313,1.73438 C4.45313,2.41146 3.19792,2.75 1.6875,2.75 C0.5625,2.75 0,2.27083 0,1.3125 C0,0.885417 0.135417,0.34375 0.40625,-0.3125 C0.666667,-0.9375 1.03125,-1.41146 1.5,-1.73438 C2.51042,-2.41146 3.77083,-2.75 5.28125,-2.75"/>
<path class="Note" transform="matrix(2.36069,0,0,2.36069,236.811,158.185)" d="M6.3125,-1.3125 C6.3125,-1.53125 6.22917,-1.71875 6.0625,-1.875 C5.88542,-2.04167 5.6875,-2.125 5.46875,-2.125 C5.08333,-2.125 4.29688,-1.73438 3.10938,-0.953125 C1.88021,-0.161458 1.13021,0.40625 0.859375,0.75 C0.713542,0.927083 0.640625,1.11458 0.640625,1.3125 C0.640625,1.53125 0.729167,1.71875 0.90625,1.875 C1.0625,2.04167 1.25521,2.125 1.48438,2.125 C1.85938,2.125 2.65625,1.73438 3.875,0.953125 C5.07292,0.171875 5.8125,-0.395833 6.09375,-0.75 C6.23958,-0.916667 6.3125,-1.10417 6.3125,-1.3125 M5.28125,-2.75 C6.39583,-2.75 6.95313,-2.27083 6.95313,-1.3125 C6.95313,-0.84375 6.81771,-0.296875 6.54688,0.328125 C6.27604,0.942708 5.91146,1.41146 5.45313,1.73438 C4.45313,2.41146 3.19792,2.75 1.6875,2.75 C0.5625,2.75 0,2.27083 0,1.3125 C0,0.885417 0.135417,0.34375 0.40625,-0.3125 C0.666667,-0.9375 1.03125,-1.41146 1.5,-1.73438 C2.51042,-2.41146 3.77083,-2.75 5.28125,-2.75"/>
<path class="Note" transform="matrix(2.36069,0,0,2.36069,182.385,246.711)" d="M6.3125,-1.3125 C6.3125,-1.53125 6.22917,-1.71875 6.0625,-1.875 C5.88542,-2.04167 5.6875,-2.125 5.46875,-2.125 C5.08333,-2.125 4.29688,-1.73438 3.10938,-0.953125 C1.88021,-0.161458 1.13021,0.40625 0.859375,0.75 C0.713542,0.927083 0.640625,1.11458 0.640625,1.3125 C0.640625,1.53125 0.729167,1.71875 0.90625,1.875 C1.0625,2.04167 1.25521,2.125 1.48438,2.125 C1.85938,2.125 2.65625,1.73438 3.875,0.953125 C5.07292,0.171875 5.8125,-0.395833 6.09375,-0.75 C6.23958,-0.916667 6.3125,-1.10417 6.3125,-1.3125 M5.28125,-2.75 C6.39583,-2.75 6.95313,-2.27083 6.95313,-1.3125 C6.95313,-0.84375 6.81771,-0.296875 6.54688,0.328125 C6.27604,0.942708 5.91146,1.41146 5.45313,1.73438 C4.45313,2.41146 3.19792,2.75 1.6875,2.75 C0.5625,2.75 0,2.27083 0,1.3125 C0,0.885417 0.135417,0.34375 0.40625,-0.3125 C0.666667,-0.9375 1.03125,-1.41146 1.5,-1.73438 C2.51042,-2.41146 3.77083,-2.75 5.28125,-2.75"/>
<path class="Note" transform="matrix(2.36069,0,0,2.36069,182.385,128.676)" d="M6.3125,-1.3125 C6.3125,-1.53125 6.22917,-1.71875 6.0625,-1.875 C5.88542,-2.04167 5.6875,-2.125 5.46875,-2.125 C5.08333,-2.125 4.29688,-1.73438 3.10938,-0.953125 C1.88021,-0.161458 1.13021,0.40625 0.859375,0.75 C0.713542,0.927083 0.640625,1.11458 0.640625,1.3125 C0.640625,1.53125 0.729167,1.71875 0.90625,1.875 C1.0625,2.04167 1.25521,2.125 1.48438,2.125 C1.85938,2.125 2.65625,1.73438 3.875,0.953125 C5.07292,0.171875 5.8125,-0.395833 6.09375,-0.75 C6.23958,-0.916667 6.3125,-1.10417 6.3125,-1.3125 M5.28125,-2.75 C6.39583,-2.75 6.95313,-2.27083 6.95313,-1.3125 C6.95313,-0.84375 6.81771,-0.296875 6.54688,0.328125 C6.27604,0.942708 5.91146,1.41146 5.45313,1.73438 C4.45313,2.41146 3.19792,2.75 1.6875,2.75 C0.5625,2.75 0,2.27083 0,1.3125 C0,0.885417 0.135417,0.34375 0.40625,-0.3125 C0.666667,-0.9375 1.03125,-1.41146 1.5,-1.73438 C2.51042,-2.41146 3.77083,-2.75 5.28125,-2.75"/>
<path class="Note" transform="matrix(2.36069,0,0,2.36069,182.385,140.479)" d="M6.3125,-1.3125 C6.3125,-1.53125 6.22917,-1.71875 6.0625,-1.875 C5.88542,-2.04167 5.6875,-2.125 5.46875,-2.125 C5.08333,-2.125 4.29688,-1.73438 3.10938,-0.953125 C1.88021,-0.161458 1.13021,0.40625 0.859375,0.75 C0.713542,0.927083 0.640625,1.11458 0.640625,1.3125 C0.640625,1.53125 0.729167,1.71875 0.90625,1.875 C1.0625,2.04167 1.25521,2.125 1.48438,2.125 C1.85938,2.125 2.65625,1.73438 3.875,0.953125 C5.07292,0.171875 5.8125,-0.395833 6.09375,-0.75 C6.23958,-0.916667 6.3125,-1.10417 6.3125,-1.3125 M5.28125,-2.75 C6.39583,-2.75 6.95313,-2.27083 6.95313,-1.3125 C6.95313,-0.84375 6.81771,-0.296875 6.54688,0.328125 C6.27604,0.942708 5.91146,1.41146 5.45313,1.73438 C4.45313,2.41146 3.19792,2.75 1.6875,2.75 C0.5625,2.75 0,2.27083 0,1.3125 C0,0.885417 0.135417,0.34375 0.40625,-0.3125 C0.666667,-0.9375 1.03125,-1.41146 1.5,-1.73438 C2.51042,-2.41146 3.77083,-2.75 5.28125,-2.75"/>
<path class="Note" transform="matrix(2.36069,0,0,2.36069,182.385,152.283)" d="M6.3125,-1.3125 C6.3125,-1.53125 6.22917,-1.71875 6.0625,-1.875 C5.88542,-2.04167 5.6875,-2.125 5.46875,-2.125 C5.08333,-2.125 4.29688,-1.73438 3.10938,-0.953125 C1.88021,-0.161458 1.13021,0.40625 0.859375,0.75 C0.713542,0.927083 0.640625,1.11458 0.640625,1.3125 C0.640625,1.53125 0.729167,1.71875 0.90625,1.875 C1.0625,2.04167 1.25521,2.125 1.48438,2.125 C1.85938,2.125 2.65625,1.73438 3.875,0.953125 C5.07292,0.171875 5.8125,-0.395833 6.09375,-0.75 C6.23958,-0.916667 6.3125,-1.10417 6.3125,-1.3125 M5.28125,-2.75 C6.39583,-2.75 6.95313,-2.27083 6.95313,-1.3125 C6.95313,-0.84375 6.81771,-0.296875 6.54688,0.328125 C6.27604,0.942708 5.91146,1.41146 5.45313,1.73438 C4.45313,2.41146 3.19792,2.75 1.6875,2.75 C0.5625,2.75 0,2.27083 0,1.3125 C0,0.885417 0.135417,0.34375 0.40625,-0.3125 C0.666667,-0.9375 1.03125,-1.41146 1.5,-1.73438 C2.51042,-2.41146 3.77083,-2.75 5.28125,-2.75"/>
<path class="Note" transform="matrix(2.36069,0,0,2.36069,144.437,264.416)" d="M6.3125,-1.3125 C6.3125,-1.53125 6.22917,-1.71875 6.0625,-1.875 C5.88542,-2.04167 5.6875,-2.125 5.46875,-2.125 C5.08333,-2.125 4.29688,-1.73438 3.10938,-0.953125 C1.88021,-0.161458 1.13021,0.40625 0.859375,0.75 C0.713542,0.927083 0.640625,1.11458 0.640625,1.3125 C0.640625,1.53125 0.729167,1.71875 0.90625,1.875 C1.0625,2.04167 1.25521,2.125 1.48438,2.125 C1.85938,2.125 2.65625,1.73438 3.875,0.953125 C5.07292,0.171875 5.8125,-0.395833 6.09375,-0.75 C6.23958,-0.916667 6.3125,-1.10417 6.3125,-1.3125 M5.28125,-2.75 C6.39583,-2.75 6.95313,-2.27083 6.95313,-1.3125 C6.95313,-0.84375 6.81771,-0.296875 6.54688,0.328125 C6.27604,0.942708 5.91146,1.41146 5.45313,1.73438 C4.45313,2.41146 3.19792,2.75 1.6875,2.75 C0.5625,2.75 0,2.27083 0,1.3125 C0,0.885417 0.135417,0.34375 0.40625,-0.3125 C0.666667,-0.9375 1.03125,-1.41146 1.5,-1.73438 C2.51042,-2.41146 3.77083,-2.75 5.28125,-2.75"/>
<path class="Note" transform="matrix(2.36069,0,0,2.36069,144.437,128.676)" d="M6.3125,-1.3125 C6.3125,-1.53125 6.22917,-1.71875 6.0625,-1.875 C5.88542,-2.04167 5.6875,-2.125 5.46875,-2.125 C5.08333,-2.125 4.29688,-1.73438 3.10938,-0.953125 C1.88021,-0.161458 1.13021,0.40625 0.859375,0.75 C0.713542,0.927083 0.640625,1.11458 0.640625,1.3125 C0.640625,1.53125 0.729167,1.71875 0.90625,1.875 C1.0625,2.04167 1.25521,2.125 1.48438,2.125 C1.85938,2.125 2.65625,1.73438 3.875,0.953125 C5.07292,0.171875 5.8125,-0.395833 6.09375,-0.75 C6.23958,-0.916667 6.3125,-1.10417 6.3125,-1.3125 M5.28125,-2.75 C6.39583,-2.75 6.95313,-2.27083 6.95313,-1.3125 C6.95313,-0.84375 6.81771,-0.296875 6.54688,0.328125 C6.27604,0.942708 5.91146,1.41146 5.45313,1.73438 C4.45313,2.41146 3.19792,2.75 1.6875,2.75 C0.5625,2.75 0,2.27083 0,1.3125 C0,0.885417 0.135417,0.34375 0.40625,-0.3125 C0.666667,-0.9375 1.03125,-1.41146 1.5,-1.73438 C2.51042,-2.41146 3.77083,-2.75 5.28125,-2.75"/>
<path class="Note" transform="matrix(2.36069,0,0,2.36069,144.437,146.381)" d="M6.3125,-1.3125 C6.3125,-1.53125 6.22917,-1.71875 6.0625,-1.875 C5.88542,-2.04167 5.6875,-2.125 5.46875,-2.125 C5.08333,-2.125 4.29688,-1.73438 3.10938,-0.953125 C1.88021,-0.161458 1.13021,0.40625 0.859375,0.75 C0.713542,0.927083 0.640625,1.11458 0.640625,1.3125 C0.640625,1.53125 0.729167,1.71875 0.90625,1.875 C1.0625,2.04167 1.25521,2.125 1.48438,2.125 C1.85938,2.125 2.65625,1.73438 3.875,0.953125 C5.07292,0.171875 5.8125,-0.395833 6.09375,-0.75 C6.23958,-0.916667 6.3125,-1.10417 6.3125,-1.3125 M5.28125,-2.75 C6.39583,-2.75 6.95313,-2.27083 6.95313,-1.3125 C6.95313,-0.84375 6.81771,-0.296875 6.54688,0.328125 C6.27604,0.942708 5.91146,1.41146 5.45313,1.73438 C4.45313,2.41146 3.19792,2.75 1.6875,2.75 C0.5625,2.75 0,2.27083 0,1.3125 C0,0.885417 0.135417,0.34375 0.40625,-0.3125 C0.666667,-0.9375 1.03125,-1.41146 1.5,-1.73438 C2.51042,-2.41146 3.77083,-2.75 5.28125,-2.75"/>
<path class="Note" transform="matrix(2.36069,0,0,2.36069,144.437,158.185)" d="M6.3125,-1.3125 C6.3125,-1.53125 6.22917,-1.71875 6.0625,-1.875 C5.88542,-2.04167 5.6875,-2.125 5.46875,-2.125 C5.08333,-2.125 4.29688,-1.73438 3.10938,-0.953125 C1.88021,-0.161458 1.13021,0.40625 0.859375,0.75 C0.713542,0.927083 0.640625,1.11458 0.640625,1.3125 C0.640625,1.53125 0.729167,1.71875 0.90625,1.875 C1.0625,2.04167 1.25521,2.125 1.48438,2.125 C1.85938,2.125 2.65625,1.73438 3.875,0.953125 C5.07292,0.171875 5.8125,-0.395833 6.09375,-0.75 C6.23958,-0.916667 6.3125,-1.10417 6.3125,-1.3125 M5.28125,-2.75 C6.39583,-2.75 6.95313,-2.27083 6.95313,-1.3125 C6.95313,-0.84375 6.81771,-0.296875 6.54688,0.328125 C6.27604,0.942708 5.91146,1.41146 5.45313,1.73438 C4.45313,2.41146 3.19792,2.75 1.6875,2.75 C0.5625,2.75 0,2.27083 0,1.3125 C0,0.885417 0.135417,0.34375 0.40625,-0.3125 C0.666667,-0.9375 1.03125,-1.41146 1.5,-1.73438 C2.51042,-2.41146 3.77083,-2.75 5.28125,-2.75"/>
<path class="Clef" transform="matrix(2.36069,0,0,2.36069,62.5765,246.711)" d="M11.4297,-1.78125 C11.237,-1.97917 11.1406,-2.22135 11.1406,-2.50781 C11.1406,-2.79427 11.237,-3.03385 11.4297,-3.22656 C11.6224,-3.41927 11.862,-3.51563 12.1484,-3.51563 C12.4349,-3.51563 12.6771,-3.41927 12.875,-3.22656 C13.0729,-3.03385 13.1719,-2.79427 13.1719,-2.50781 C13.1719,-2.22135 13.0729,-1.97917 12.875,-1.78125 C12.6771,-1.58333 12.4349,-1.48438 12.1484,-1.48438 C11.862,-1.48438 11.6224,-1.58333 11.4297,-1.78125 M11.4297,3.22656 C11.237,3.03385 11.1406,2.79427 11.1406,2.50781 C11.1406,2.22135 11.237,1.97917 11.4297,1.78125 C11.6224,1.58333 11.862,1.48438 12.1484,1.48438 C12.4349,1.48438 12.6771,1.58333 12.875,1.78125 C13.0729,1.97917 13.1719,2.22135 13.1719,2.50781 C13.1719,2.79427 13.0729,3.03385 12.875,3.22656 C12.6771,3.41927 12.4349,3.51563 12.1484,3.51563 C11.862,3.51563 11.6224,3.41927 11.4297,3.22656 M4.65625,-5.25 C6.38542,-5.25 7.80208,-4.81771 8.90625,-3.95313 C9.97917,-3.03646 10.5156,-1.79688 10.5156,-0.234375 C10.5156,0.817708 10.3073,1.78125 9.89063,2.65625 C9.49479,3.57292 8.97917,4.38021 8.34375,5.07813 C7.6875,5.79688 6.90104,6.47396 5.98438,7.10938 C5.07813,7.73438 4.15104,8.29688 3.20313,8.79688 C1.27604,9.76563 0.208333,10.25 0,10.25 C-0.166667,10.25 -0.25,10.1667 -0.25,10 C-0.25,9.9375 -0.223958,9.88021 -0.171875,9.82813 C0.494792,9.43229 1.30729,8.93229 2.26563,8.32813 C2.89063,7.92188 3.61979,7.35938 4.45313,6.64063 C5.26563,5.96354 5.89063,5.32813 6.32813,4.73438 C6.78646,4.14063 7.20313,3.41146 7.57813,2.54688 C7.90104,1.67188 8.0625,0.807292 8.0625,-0.046875 C8.0625,-1.30729 7.75,-2.40625 7.125,-3.34375 C6.5,-4.28125 5.67708,-4.75 4.65625,-4.75 C3.92708,-4.75 3.30208,-4.51563 2.78125,-4.04688 C2.21875,-3.56771 1.8125,-2.96354 1.5625,-2.23438 C1.8125,-2.33854 2.04167,-2.39063 2.25,-2.39063 C2.79167,-2.39063 3.26042,-2.19271 3.65625,-1.79688 C4.04167,-1.38021 4.23438,-0.90625 4.23438,-0.375 C4.23438,0.1875 4.04688,0.692708 3.67188,1.14063 C3.26563,1.53646 2.79167,1.73438 2.25,1.73438 C1.66667,1.73438 1.14063,1.53646 0.671875,1.14063 C0.223958,0.692708 0,0.1875 0,-0.375 C0,-1.71875 0.458333,-2.86458 1.375,-3.8125 C2.27083,-4.77083 3.36458,-5.25 4.65625,-5.25"/>
<path class="Clef" transform="matrix(2.36069,0,0,2.36069,62.5765,146.381)" d="M7.34375,-5.125 C7.34375,-5.125 7.38542,-5.125 7.46875,-5.125 C7.52083,-5.13542 7.5625,-5.14063 7.59375,-5.14063 C9.05208,-5.14063 10.25,-4.625 11.1875,-3.59375 C12.125,-2.58333 12.5938,-1.40104 12.5938,-0.046875 C12.5938,1.64063 11.901,3.01042 10.5156,4.0625 C10.151,4.35417 9.67188,4.58854 9.07813,4.76563 C9.15104,5.60938 9.1875,6.29167 9.1875,6.8125 C9.1875,6.91667 9.17188,7.29688 9.14063,7.95313 C9.08854,9.16146 8.67188,10.2083 7.89063,11.0938 C7.14063,11.9688 6.20313,12.4063 5.07813,12.4063 C4.02604,12.4063 3.13021,12.0365 2.39063,11.2969 C1.64063,10.5365 1.26563,9.625 1.26563,8.5625 C1.26563,8 1.48438,7.52083 1.92188,7.125 C2.35938,6.73958 2.86979,6.54688 3.45313,6.54688 C3.97396,6.54688 4.41146,6.75 4.76563,7.15625 C5.13021,7.53125 5.3125,8 5.3125,8.5625 C5.3125,9.0625 5.13021,9.49479 4.76563,9.85938 C4.40104,10.224 3.96354,10.4063 3.45313,10.4063 C3.24479,10.4063 3.04688,10.3698 2.85938,10.2969 C3.43229,11.1406 4.19271,11.5625 5.14063,11.5625 C6.03646,11.5625 6.77083,11.1979 7.34375,10.4688 C7.94792,9.71875 8.27604,8.83854 8.32813,7.82813 C8.34896,7.20313 8.35938,6.84896 8.35938,6.76563 C8.35938,6.03646 8.33333,5.4375 8.28125,4.96875 C7.63542,5.07292 7.05729,5.125 6.54688,5.125 C4.73438,5.125 3.19271,4.40625 1.92188,2.96875 C0.671875,1.52083 0.046875,-0.197917 0.046875,-2.1875 C0.046875,-2.60417 0.0833333,-3.02604 0.15625,-3.45313 C0.239583,-3.80729 0.338542,-4.19271 0.453125,-4.60938 C0.515625,-4.84896 0.692708,-5.22917 0.984375,-5.75 C1.08854,-5.90625 1.20573,-6.10156 1.33594,-6.33594 C1.46615,-6.57031 1.55729,-6.72396 1.60938,-6.79688 C1.73438,-7.05729 1.98438,-7.41146 2.35938,-7.85938 C2.46354,-7.97396 2.57292,-8.10156 2.6875,-8.24219 C2.80208,-8.38281 2.89844,-8.5 2.97656,-8.59375 C3.05469,-8.6875 3.11198,-8.76042 3.14844,-8.8125 C3.1849,-8.86458 3.47917,-9.20833 4.03125,-9.84375 C4.15625,-9.97917 4.28125,-10.1198 4.40625,-10.2656 C4.53125,-10.4115 4.63281,-10.5286 4.71094,-10.6172 C4.78906,-10.7057 4.84896,-10.7656 4.89063,-10.7969 C4.42188,-12.349 4.125,-13.5885 4,-14.5156 C3.91667,-15.2552 3.875,-16.2708 3.875,-17.5625 C3.875,-18.6979 4.13542,-19.7604 4.65625,-20.75 C5.15625,-21.7708 5.86458,-22.6094 6.78125,-23.2656 C6.84375,-23.3073 6.90625,-23.3281 6.96875,-23.3281 C7.0625,-23.3281 7.13021,-23.3073 7.17188,-23.2656 C7.86979,-22.4219 8.47396,-21.3229 8.98438,-19.9688 C9.50521,-18.6146 9.76563,-17.3802 9.76563,-16.2656 C9.76563,-15.0156 9.46875,-13.8438 8.875,-12.75 C8.19792,-11.5938 7.32292,-10.3958 6.25,-9.15625 C6.52083,-8.30208 6.88542,-6.95833 7.34375,-5.125 M9,3.96875 C9.67708,3.71875 10.2083,3.29688 10.5938,2.70313 C11.0104,2.13021 11.2188,1.48438 11.2188,0.765625 C11.2188,-0.161458 10.9063,-0.984375 10.2813,-1.70313 C9.63542,-2.44271 8.81771,-2.85938 7.82813,-2.95313 C8.39063,-0.203125 8.78125,2.10417 9,3.96875 M1.45313,-0.546875 C1.45313,0.744792 1.97396,1.88021 3.01563,2.85938 C4.07813,3.80729 5.27604,4.28125 6.60938,4.28125 C7.15104,4.28125 7.68229,4.23958 8.20313,4.15625 C7.99479,2.17708 7.58333,-0.192708 6.96875,-2.95313 C6.22917,-2.86979 5.64063,-2.60938 5.20313,-2.17188 C4.76563,-1.71354 4.54688,-1.19792 4.54688,-0.625 C4.54688,0.364583 5.07813,1.16667 6.14063,1.78125 C6.22396,1.875 6.26563,1.97396 6.26563,2.07813 C6.26563,2.18229 6.22396,2.27604 6.14063,2.35938 C6.05729,2.45313 5.95833,2.5 5.84375,2.5 C5.83333,2.5 5.77604,2.48958 5.67188,2.46875 C4.92188,2.0625 4.34896,1.54167 3.95313,0.90625 C3.56771,0.21875 3.375,-0.46875 3.375,-1.15625 C3.375,-2.05208 3.65625,-2.86458 4.21875,-3.59375 C4.80208,-4.32292 5.5625,-4.79167 6.5,-5 C6.13542,-6.45833 5.83854,-7.59896 5.60938,-8.42188 C5.40104,-8.18229 5.15104,-7.89844 4.85938,-7.57031 C4.56771,-7.24219 4.39583,-7.04167 4.34375,-6.96875 C3.875,-6.36458 3.51563,-5.89063 3.26563,-5.54688 C2.81771,-4.93229 2.48958,-4.40625 2.28125,-3.96875 C2.0625,-3.46875 1.86979,-2.92708 1.70313,-2.34375 C1.53646,-1.78125 1.45313,-1.18229 1.45313,-0.546875 M7.96875,-20.4063 C6.98958,-19.9271 6.22396,-19.2396 5.67188,-18.3438 C5.09896,-17.4167 4.8125,-16.4219 4.8125,-15.3594 C4.8125,-14.4219 5.04688,-13.1563 5.51563,-11.5625 C6.45313,-12.6979 7.15625,-13.7448 7.625,-14.7031 C8.11458,-15.724 8.35938,-16.7865 8.35938,-17.8906 C8.35938,-18.724 8.22917,-19.5625 7.96875,-20.4063"/>
<path class="TimeSig" transform="matrix(2.36069,0,0,2.36069,104.896,246.711)" d="M4.5,-4.75 C4.88542,-4.75 5.21615,-4.79427 5.49219,-4.88281 C5.76823,-4.97135 5.94271,-5.01563 6.01563,-5.01563 C6.10938,-5.01563 6.18229,-4.98958 6.23438,-4.9375 C6.27604,-4.90625 6.30208,-4.86458 6.3125,-4.8125 C6.3125,-4.78125 6.29688,-4.73958 6.26563,-4.6875 L0.59375,1.92188 L3.92188,1.92188 L3.92188,-0.703125 C3.92188,-0.869792 3.96875,-1.01563 4.0625,-1.14063 C4.21875,-1.26563 4.34896,-1.34375 4.45313,-1.375 C4.61979,-1.44792 4.82813,-1.63021 5.07813,-1.92188 C5.28646,-2.15104 5.53646,-2.55729 5.82813,-3.14063 C5.85938,-3.22396 5.91667,-3.26563 6,-3.26563 C6.15625,-3.26563 6.24479,-3.17188 6.26563,-2.98438 L6.26563,1.92188 L7.70313,1.92188 C7.88021,1.92188 7.98438,2.01563 8.01563,2.20313 C8.01563,2.40104 7.91146,2.5 7.70313,2.5 L6.26563,2.5 L6.26563,2.65625 C6.26563,3.17708 6.39583,3.61979 6.65625,3.98438 C6.95833,4.34896 7.3125,4.53125 7.71875,4.53125 C7.875,4.53125 7.95313,4.60938 7.95313,4.76563 C7.95313,4.92188 7.875,5 7.71875,5 C7.44792,5 7.00521,4.96354 6.39063,4.89063 C5.82813,4.79688 5.39063,4.75 5.07813,4.75 C4.75521,4.75 4.31771,4.79688 3.76563,4.89063 C3.18229,4.96354 2.75,5 2.46875,5 C2.3125,5 2.23438,4.92188 2.23438,4.76563 C2.23438,4.60938 2.3125,4.53125 2.46875,4.53125 C2.86458,4.53125 3.21354,4.34896 3.51563,3.98438 C3.78646,3.61979 3.92188,3.17708 3.92188,2.65625 L3.92188,2.5 L0.59375,2.5 C0.364583,2.5 0.208333,2.44792 0.125,2.34375 C0.0104167,2.27083 -0.046875,2.16667 -0.046875,2.03125 C-0.046875,1.98958 0.0520833,1.85417 0.25,1.625 C0.479167,1.36458 0.713542,1.04688 0.953125,0.671875 C1.24479,0.223958 1.52083,-0.234375 1.78125,-0.703125 C2.0625,-1.23438 2.29167,-1.84896 2.46875,-2.54688 C2.65625,-3.24479 2.75,-3.95833 2.75,-4.6875 C2.75,-4.89583 2.84375,-5 3.03125,-5 C3.07292,-5 3.15625,-4.97917 3.28125,-4.9375 C3.32292,-4.92708 3.40625,-4.90885 3.53125,-4.88281 C3.65625,-4.85677 3.75521,-4.83333 3.82813,-4.8125 C4.06771,-4.77083 4.29167,-4.75 4.5,-4.75"/>
<path class="TimeSig" transform="matrix(2.36069,0,0,2.36069,104.896,270.317)" d="M4.5,-4.75 C4.88542,-4.75 5.21615,-4.79427 5.49219,-4.88281 C5.76823,-4.97135 5.94271,-5.01563 6.01563,-5.01563 C6.10938,-5.01563 6.18229,-4.98958 6.23438,-4.9375 C6.27604,-4.90625 6.30208,-4.86458 6.3125,-4.8125 C6.3125,-4.78125 6.29688,-4.73958 6.26563,-4.6875 L0.59375,1.92188 L3.92188,1.92188 L3.92188,-0.703125 C3.92188,-0.869792 3.96875,-1.01563 4.0625,-1.14063 C4.21875,-1.26563 4.34896,-1.34375 4.45313,-1.375 C4.61979,-1.44792 4.82813,-1.63021 5.07813,-1.92188 C5.28646,-2.15104 5.53646,-2.55729 5.82813,-3.14063 C5.85938,-3.22396 5.91667,-3.26563 6,-3.26563 C6.15625,-3.26563 6.24479,-3.17188 6.26563,-2.98438 L6.26563,1.92188 L7.70313,1.92188 C7.88021,1.92188 7.98438,2.01563 8.01563,2.20313 C8.01563,2.40104 7.91146,2.5 7.70313,2.5 L6.26563,2.5 L6.26563,2.65625 C6.26563,3.17708 6.39583,3.61979 6.65625,3.98438 C6.95833,4.34896 7.3125,4.53125 7.71875,4.53125 C7.875,4.53125 7.95313,4.60938 7.95313,4.76563 C7.95313,4.92188 7.875,5 7.71875,5 C7.44792,5 7.00521,4.96354 6.39063,4.89063 C5.82813,4.79688 5.39063,4.75 5.07813,4.75 C4.75521,4.75 4.31771,4.79688 3.76563,4.89063 C3.18229,4.96354 2.75,5 2.46875,5 C2.3125,5 2.23438,4.92188 2.23438,4.76563 C2.23438,4.60938 2.3125,4.53125 2.46875,4.53125 C2.86458,4.53125 3.21354,4.34896 3.51563,3.98438 C3.78646,3.61979 3.92188,3.17708 3.92188,2.65625 L3.92188,2.5 L0.59375,2.5 C0.364583,2.5 0.208333,2.44792 0.125,2.34375 C0.0104167,2.27083 -0.046875,2.16667 -0.046875,2.03125 C-0.046875,1.98958 0.0520833,1.85417 0.25,1.625 C0.479167,1.36458 0.713542,1.04688 0.953125,0.671875 C1.24479,0.223958 1.52083,-0.234375 1.78125,-0.703125 C2.0625,-1.23438 2.29167,-1.84896 2.46875,-2.54688 C2.65625,-3.24479 2.75,-3.95833 2.75,-4.6875 C2.75,-4.89583 2.84375,-5 3.03125,-5 C3.07292,-5 3.15625,-4.97917 3.28125,-4.9375 C3.32292,-4.92708 3.40625,-4.90885 3.53125,-4.88281 C3.65625,-4.85677 3.75521,-4.83333 3.82813,-4.8125 C4.06771,-4.77083 4.29167,-4.75 4.5,-4.75"/>
<path class="TimeSig" transform="matrix(2.36069,0,0,2.36069,104.896,122.774)" d="M4.5,-4.75 C4.88542,-4.75 5.21615,-4.79427 5.49219,-4.88281 C5.76823,-4.97135 5.94271,-5.01563 6.01563,-5.01563 C6.10938,-5.01563 6.18229,-4.98958 6.23438,-4.9375 C6.27604,-4.90625 6.30208,-4.86458 6.3125,-4.8125 C6.3125,-4.78125 6.29688,-4.73958 6.26563,-4.6875 L0.59375,1.92188 L3.92188,1.92188 L3.92188,-0.703125 C3.92188,-0.869792 3.96875,-1.01563 4.0625,-1.14063 C4.21875,-1.26563 4.34896,-1.34375 4.45313,-1.375 C4.61979,-1.44792 4.82813,-1.63021 5.07813,-1.92188 C5.28646,-2.15104 5.53646,-2.55729 5.82813,-3.14063 C5.85938,-3.22396 5.91667,-3.26563 6,-3.26563 C6.15625,-3.26563 6.24479,-3.17188 6.26563,-2.98438 L6.26563,1.92188 L7.70313,1.92188 C7.88021,1.92188 7.98438,2.01563 8.01563,2.20313 C8.01563,2.40104 7.91146,2.5 7.70313,2.5 L6.26563,2.5 L6.26563,2.65625 C6.26563,3.17708 6.39583,3.61979 6.65625,3.98438 C6.95833,4.34896 7.3125,4.53125 7.71875,4.53125 C7.875,4.53125 7.95313,4.60938 7.95313,4.76563 C7.95313,4.92188 7.875,5 7.71875,5 C7.44792,5 7.00521,4.96354 6.39063,4.89063 C5.82813,4.79688 5.39063,4.75 5.07813,4.75 C4.75521,4.75 4.31771,4.79688 3.76563,4.89063 C3.18229,4.96354 2.75,5 2.46875,5 C2.3125,5 2.23438,4.92188 2.23438,4.76563 C2.23438,4.60938 2.3125,4.53125 2.46875,4.53125 C2.86458,4.53125 3.21354,4.34896 3.51563,3.98438 C3.78646,3.61979 3.92188,3.17708 3.92188,2.65625 L3.92188,2.5 L0.59375,2.5 C0.364583,2.5 0.208333,2.44792 0.125,2.34375 C0.0104167,2.27083 -0.046875,2.16667 -0.046875,2.03125 C-0.046875,1.98958 0.0520833,1.85417 0.25,1.625 C0.479167,1.36458 0.713542,1.04688 0.953125,0.671875 C1.24479,0.223958 1.52083,-0.234375 1.78125,-0.703125 C2.0625,-1.23438 2.29167,-1.84896 2.46875,-2.54688 C2.65625,-3.24479 2.75,-3.95833 2.75,-4.6875 C2.75,-4.89583 2.84375,-5 3.03125,-5 C3.07292,-5 3.15625,-4.97917 3.28125,-4.9375 C3.32292,-4.92708 3.40625,-4.90885 3.53125,-4.88281 C3.65625,-4.85677 3.75521,-4.83333 3.82813,-4.8125 C4.06771,-4.77083 4.29167,-4.75 4.5,-4.75"/>
<path class="TimeSig" transform="matrix(2.36069,0,0,2.36069,104.896,146.381)" d="M4.5,-4.75 C4.88542,-4.75 5.21615,-4.79427 5.49219,-4.88281 C5.76823,-4.97135 5.94271,-5.01563 6.01563,-5.01563 C6.10938,-5.01563 6.18229,-4.98958 6.23438,-4.9375 C6.27604,-4.90625 6.30208,-4.86458 6.3125,-4.8125 C6.3125,-4.78125 6.29688,-4.73958 6.26563,-4.6875 L0.59375,1.92188 L3.92188,1.92188 L3.92188,-0.703125 C3.92188,-0.869792 3.96875,-1.01563 4.0625,-1.14063 C4.21875,-1.26563 4.34896,-1.34375 4.45313,-1.375 C4.61979,-1.44792 4.82813,-1.63021 5.07813,-1.92188 C5.28646,-2.15104 5.53646,-2.55729 5.82813,-3.14063 C5.85938,-3.22396 5.91667,-3.26563 6,-3.26563 C6.15625,-3.26563 6.24479,-3.17188 6.26563,-2.98438 L6.26563,1.92188 L7.70313,1.92188 C7.88021,1.92188 7.98438,2.01563 8.01563,2.20313 C8.01563,2.40104 7.91146,2.5 7.70313,2.5 L6.26563,2.5 L6.26563,2.65625 C6.26563,3.17708 6.39583,3.61979 6.65625,3.98438 C6.95833,4.34896 7.3125,4.53125 7.71875,4.53125 C7.875,4.53125 7.95313,4.60938 7.95313,4.76563 C7.95313,4.92188 7.875,5 7.71875,5 C7.44792,5 7.00521,4.96354 6.39063,4.89063 C5.82813,4.79688 5.39063,4.75 5.07813,4.75 C4.75521,4.75 4.31771,4.79688 3.76563,4.89063 C3.18229,4.96354 2.75,5 2.46875,5 C2.3125,5 2.23438,4.92188 2.23438,4.76563 C2.23438,4.60938 2.3125,4.53125 2.46875,4.53125 C2.86458,4.53125 3.21354,4.34896 3.51563,3.98438 C3.78646,3.61979 3.92188,3.17708 3.92188,2.65625 L3.92188,2.5 L0.59375,2.5 C0.364583,2.5 0.208333,2.44792 0.125,2.34375 C0.0104167,2.27083 -0.046875,2.16667 -0.046875,2.03125 C-0.046875,1.98958 0.0520833,1.85417 0.25,1.625 C0.479167,1.36458 0.713542,1.04688 0.953125,0.671875 C1.24479,0.223958 1.52083,-0.234375 1.78125,-0.703125 C2.0625,-1.23438 2.29167,-1.84896 2.46875,-2.54688 C2.65625,-3.24479 2.75,-3.95833 2.75,-4.6875 C2.75,-4.89583 2.84375,-5 3.03125,-5 C3.07292,-5 3.15625,-4.97917 3.28125,-4.9375 C3.32292,-4.92708 3.40625,-4.90885 3.53125,-4.88281 C3.65625,-4.85677 3.75521,-4.83333 3.82813,-4.8125 C4.06771,-4.77083 4.29167,-4.75 4.5,-4.75"/>
<path class="Rest" transform="matrix(2.36069,0,0,2.36069,782.385,134.578)" d="M7.3125,0 L0.203125,0 C0.0677083,0 0,-0.0677083 0,-0.203125 L0,-2.9375 C0,-3.0625 0.0677083,-3.125 0.203125,-3.125 L7.3125,-3.125 C7.4375,-3.125 7.5,-3.0625 7.5,-2.9375 L7.5,-0.203125 C7.5,-0.0677083 7.4375,0 7.3125,0"/>
<path class="Rest" transform="matrix(2.36069,0,0,2.36069,753.461,134.578)" d="M-0.125,-1.5625 C-0.125,-1.80208 0.0104167,-2.0625 0.28125,-2.34375 C0.46875,-2.55208 0.755208,-2.80208 1.14063,-3.09375 C1.42188,-3.28125 1.69792,-3.57292 1.96875,-3.96875 C2.22917,-4.34375 2.35938,-4.75521 2.35938,-5.20313 C2.35938,-5.72396 2.19271,-6.18229 1.85938,-6.57813 L1.15625,-7.42188 C1.10417,-7.47396 1.07813,-7.53906 1.07813,-7.61719 C1.07813,-7.69531 1.11458,-7.76563 1.1875,-7.82813 C1.28125,-7.90104 1.35938,-7.9375 1.42188,-7.9375 C1.51563,-7.9375 1.58854,-7.89583 1.64063,-7.8125 L4.67188,-4.21875 C4.79688,-4.05208 4.85938,-3.88542 4.85938,-3.71875 C4.85938,-3.47917 4.72917,-3.21875 4.46875,-2.9375 C4.30208,-2.75 4.02604,-2.5 3.64063,-2.1875 C3.33854,-2.01042 3.05208,-1.71875 2.78125,-1.3125 C2.52083,-0.9375 2.39063,-0.526042 2.39063,-0.078125 C2.39063,0.473958 2.54688,0.9375 2.85938,1.3125 L4.53125,3.28125 C4.57292,3.32292 4.60417,3.39063 4.625,3.48438 C4.625,3.56771 4.59375,3.64583 4.53125,3.71875 C4.4375,3.78125 4.35938,3.8125 4.29688,3.8125 C4.27604,3.8125 4.17188,3.73958 3.98438,3.59375 C3.78646,3.4375 3.52604,3.28646 3.20313,3.14063 C2.83854,3.00521 2.47917,2.9375 2.125,2.9375 C1.80208,2.9375 1.53646,3.02604 1.32813,3.20313 C1.15104,3.39063 1.0625,3.74479 1.0625,4.26563 C1.0625,5.05729 1.25,5.68229 1.625,6.14063 C1.66667,6.19271 1.67188,6.25521 1.64063,6.32813 C1.61979,6.38021 1.57292,6.40625 1.5,6.40625 C1.41667,6.40625 1.21875,6.17188 0.90625,5.70313 C0.572917,5.21354 0.265625,4.64583 -0.015625,4 C-0.317708,3.32292 -0.46875,2.76563 -0.46875,2.32813 C-0.46875,1.76563 -0.203125,1.48438 0.328125,1.48438 C0.942708,1.48438 1.73958,1.69271 2.71875,2.10938 L0.078125,-1.0625 C-0.0572917,-1.22917 -0.125,-1.39583 -0.125,-1.5625"/>
<path class="Rest" transform="matrix(2.36069,0,0,2.36069,760.665,246.711)" d="M7.3125,3.125 L0.203125,3.125 C0.0677083,3.125 0,3.0625 0,2.9375 L0,0.203125 C0,0.0677083 0.0677083,0 0.203125,0 L7.3125,0 C7.4375,0 7.5,0.0677083 7.5,0.203125 L7.5,2.9375 C7.5,3.0625 7.4375,3.125 7.3125,3.125"/>
<path class="Rest" transform="matrix(2.36069,0,0,2.36069,630.848,246.711)" d="M7.3125,3.125 L0.203125,3.125 C0.0677083,3.125 0,3.0625 0,2.9375 L0,0.203125 C0,0.0677083 0.0677083,0 0.203125,0 L7.3125,0 C7.4375,0 7.5,0.0677083 7.5,0.203125 L7.5,2.9375 C7.5,3.0625 7.4375,3.125 7.3125,3.125"/>
<path class="Rest" transform="matrix(2.36069,0,0,2.36069,491.393,246.711)" d="M7.3125,3.125 L0.203125,3.125 C0.0677083,3.125 0,3.0625 0,2.9375 L0,0.203125 C0,0.0677083 0.0677083,0 0.203125,0 L7.3125,0 C7.4375,0 7.5,0.0677083 7.5,0.203125 L7.5,2.9375 C7.5,3.0625 7.4375,3.125 7.3125,3.125"/>
<path class="Rest" transform="matrix(2.36069,0,0,2.36069,385.281,258.514)" d="M7.3125,0 L0.203125,0 C0.0677083,0 0,-0.0677083 0,-0.203125 L0,-2.9375 C0,-3.0625 0.0677083,-3.125 0.203125,-3.125 L7.3125,-3.125 C7.4375,-3.125 7.5,-3.0625 7.5,-2.9375 L7.5,-0.203125 C7.5,-0.0677083 7.4375,0 7.3125,0"/>
<path class="Rest" transform="matrix(2.36069,0,0,2.36069,385.281,134.578)" d="M7.3125,0 L0.203125,0 C0.0677083,0 0,-0.0677083 0,-0.203125 L0,-2.9375 C0,-3.0625 0.0677083,-3.125 0.203125,-3.125 L7.3125,-3.125 C7.4375,-3.125 7.5,-3.0625 7.5,-2.9375 L7.5,-0.203125 C7.5,-0.0677083 7.4375,0 7.3125,0"/>
<path class="Tempo" d="M111.677,57.8194 C111.224,57.4287 110.614,57.2256 109.88,57.2256 C107.114,57.2256 104.896,59.2725 104.896,61.46 C104.896,62.7725 105.958,63.5537 107.333,63.5537 C109.567,63.5537 112.349,61.46 112.349,59.335 L112.349,44.9912 L111.677,44.9912 L111.677,57.8194 "/>
<path class="Tempo" d="M136.521,54.4912 L121.067,54.4912 L121.067,51.8037 L136.521,51.8037 L136.521,54.4912 M136.521,61.3194 L121.067,61.3194 L121.067,58.6319 L136.521,58.6319 L136.521,61.3194 M149.458,47.5694 C149.229,47.5694 148.961,47.6162 148.653,47.71 C148.346,47.8037 148.021,47.9157 147.677,48.0459 C147.333,48.1761 147.13,48.2516 147.067,48.2725 L147.067,47.5381 L154.13,44.4912 L154.614,44.4912 L154.614,60.46 C154.614,61.5329 154.799,62.2334 155.169,62.5615 C155.539,62.8897 156.359,63.0641 157.63,63.085 L157.63,63.7569 L147.13,63.7569 L147.13,63.085 C148.515,63.0641 149.416,62.8819 149.833,62.5381 C150.25,62.1944 150.458,61.4444 150.458,60.2881 L150.458,49.5069 C150.458,48.2152 150.125,47.5694 149.458,47.5694 M160.13,50.21 C161.547,46.3975 163.599,44.4912 166.286,44.4912 C167.797,44.4912 169.036,44.973 170.005,45.9365 C170.974,46.9001 171.458,48.1266 171.458,49.6162 C171.458,51.6683 170.396,53.7048 168.271,55.7256 L163.739,60.0381 L167.958,60.0381 C169.396,60.0381 170.32,59.9261 170.732,59.7022 C171.143,59.4782 171.557,58.861 171.974,57.8506 L172.646,57.8506 L171.38,63.7569 L159.724,63.7569 L159.724,63.1162 C162.922,59.7204 165.044,57.2152 166.091,55.6006 C167.138,53.986 167.661,52.5329 167.661,51.2412 C167.661,50.2933 167.351,49.4626 166.732,48.749 C166.112,48.0355 165.307,47.6787 164.317,47.6787 C162.88,47.6787 161.745,48.5225 160.911,50.21 L160.13,50.21 M173.927,54.2412 C173.927,51.4912 174.534,49.1787 175.747,47.3037 C176.961,45.4287 178.463,44.4912 180.255,44.4912 C182.067,44.4912 183.575,45.4287 184.778,47.3037 C185.982,49.1787 186.583,51.5173 186.583,54.3194 C186.583,57.1423 185.987,59.4808 184.794,61.335 C183.601,63.1891 182.099,64.1162 180.286,64.1162 C178.422,64.1162 176.896,63.1917 175.708,61.3428 C174.521,59.4938 173.927,57.1266 173.927,54.2412 M180.286,63.335 C180.901,63.335 181.367,62.9157 181.685,62.0772 C182.002,61.2386 182.161,59.7256 182.161,57.5381 L182.161,51.1319 C182.161,49.0589 182.013,47.5641 181.716,46.6475 C181.419,45.7308 180.922,45.2725 180.224,45.2725 C179.557,45.2725 179.078,45.7204 178.786,46.6162 C178.495,47.5121 178.349,49.0173 178.349,51.1319 L178.349,57.5381 C178.349,59.611 178.497,61.0954 178.794,61.9912 C179.091,62.8871 179.588,63.335 180.286,63.335"/>
<path class="Bracket" fill-rule="evenodd" d="M48.1965,171.862 C48.1965,158.073 38.6998,144.67 38.6998,131.461 C38.6998,124.807 41.2898,118.347 49.2757,112.562 C49.3836,112.489 49.4376,112.369 49.4376,112.297 C49.4376,112.08 48.844,111.887 48.4123,111.887 C48.1965,111.887 47.8188,111.911 47.549,112.08 C37.1889,119.504 33.7356,128.086 33.7356,136.764 C33.7356,150.745 43.8798,164.244 43.8798,177.647 C43.8798,184.3 41.2898,190.568 33.3039,196.353 L33.3039,196.546 L33.3039,196.739 C41.2898,202.524 43.8798,208.792 43.8798,215.445 C43.8798,228.847 33.7356,242.347 33.7356,256.328 C33.7356,265.006 37.1889,273.588 47.549,281.012 C47.8188,281.181 48.1965,281.205 48.4123,281.205 C48.844,281.205 49.4376,281.012 49.4376,280.795 C49.4376,280.723 49.3836,280.602 49.2757,280.53 C41.2898,274.745 38.6998,268.284 38.6998,261.631 C38.6998,248.421 48.1965,235.018 48.1965,221.23 C48.1965,212.456 44.7432,204.067 34.5989,196.546 C44.7432,189.025 48.1965,180.636 48.1965,171.862"/>
</svg>
